<svg width="68" height="15" viewBox="0 0 68 15" fill="none" xmlns="http://www.w3.org/2000/svg">
<path d="M11.9165 14.0459V5.1919L8.45851 11.7849H6.99551L3.53751 5.1919V14.0459H0.91551V0.555898H3.72751L7.71751 8.2319L11.7455 0.555898H14.5385V14.0459H11.9165ZM20.8854 14.2359C20.0874 14.2359 19.3654 14.1029 18.7194 13.8369C18.0734 13.5582 17.5224 13.1846 17.0664 12.7159C16.6104 12.2346 16.2558 11.6899 16.0024 11.0819C15.7618 10.4612 15.6414 9.8089 15.6414 9.1249C15.6414 8.1749 15.8504 7.30723 16.2684 6.5219C16.6991 5.73656 17.3071 5.10956 18.0924 4.6409C18.8904 4.15956 19.8278 3.9189 20.9044 3.9189C21.9938 3.9189 22.9248 4.15956 23.6974 4.6409C24.4701 5.10956 25.0591 5.73656 25.4644 6.5219C25.8824 7.29456 26.0914 8.13057 26.0914 9.0299C26.0914 9.1819 26.0851 9.34023 26.0724 9.5049C26.0598 9.6569 26.0471 9.78356 26.0344 9.8849H18.3394C18.3901 10.3916 18.5358 10.8349 18.7764 11.2149C19.0298 11.5949 19.3464 11.8862 19.7264 12.0889C20.1191 12.2789 20.5371 12.3739 20.9804 12.3739C21.4871 12.3739 21.9621 12.2536 22.4054 12.0129C22.8614 11.7596 23.1718 11.4302 23.3364 11.0249L25.5214 11.6329C25.2808 12.1396 24.9324 12.5892 24.4764 12.9819C24.0331 13.3746 23.5074 13.6849 22.8994 13.9129C22.2914 14.1282 21.6201 14.2359 20.8854 14.2359ZM18.2824 8.2699H23.4884C23.4378 7.76323 23.2921 7.32623 23.0514 6.9589C22.8234 6.5789 22.5194 6.28756 22.1394 6.0849C21.7594 5.86956 21.3351 5.7619 20.8664 5.7619C20.4104 5.7619 19.9924 5.86956 19.6124 6.0849C19.2451 6.28756 18.9411 6.5789 18.7004 6.9589C18.4724 7.32623 18.3331 7.76323 18.2824 8.2699ZM35.4319 2.8549H31.1189V14.0459H28.5159V2.8549H24.2029V0.555898H35.4319V2.8549ZM36.187 14.0459V4.0899H38.733V14.0459H36.187ZM36.187 2.7029V0.175898H38.733V2.7029H36.187ZM55.8232 14.0459H53.2772V8.4599C53.2772 7.67457 53.1379 7.09823 52.8592 6.7309C52.5932 6.3509 52.2195 6.1609 51.7382 6.1609C51.2442 6.1609 50.7692 6.35723 50.3132 6.7499C49.8699 7.1299 49.5532 7.63023 49.3632 8.2509V14.0459H46.8172V8.4599C46.8172 7.6619 46.6779 7.07923 46.3992 6.7119C46.1332 6.34456 45.7595 6.1609 45.2782 6.1609C44.7842 6.1609 44.3092 6.3509 43.8532 6.7309C43.4099 7.1109 43.0932 7.61123 42.9032 8.2319V14.0459H40.3572V4.0899H42.6562V5.9329C43.0362 5.2869 43.5429 4.7929 44.1762 4.4509C44.8095 4.09623 45.5379 3.9189 46.3612 3.9189C47.1845 3.9189 47.8242 4.12156 48.2802 4.5269C48.7489 4.93223 49.0465 5.43256 49.1732 6.0279C49.5785 5.3439 50.0915 4.82456 50.7122 4.4699C51.3455 4.10256 52.0549 3.9189 52.8402 3.9189C53.4609 3.9189 53.9612 4.0329 54.3412 4.2609C54.7339 4.47623 55.0379 4.7739 55.2532 5.1539C55.4685 5.52123 55.6142 5.93923 55.6902 6.4079C55.7789 6.87656 55.8232 7.35156 55.8232 7.8329V14.0459ZM61.9843 14.2359C61.1863 14.2359 60.4643 14.1029 59.8183 13.8369C59.1723 13.5582 58.6213 13.1846 58.1653 12.7159C57.7093 12.2346 57.3546 11.6899 57.1013 11.0819C56.8606 10.4612 56.7403 9.8089 56.7403 9.1249C56.7403 8.1749 56.9493 7.30723 57.3673 6.5219C57.7979 5.73656 58.4059 5.10956 59.1913 4.6409C59.9893 4.15956 60.9266 3.9189 62.0033 3.9189C63.0926 3.9189 64.0236 4.15956 64.7963 4.6409C65.5689 5.10956 66.1579 5.73656 66.5633 6.5219C66.9813 7.29456 67.1903 8.13057 67.1903 9.0299C67.1903 9.1819 67.1839 9.34023 67.1713 9.5049C67.1586 9.6569 67.1459 9.78356 67.1333 9.8849H59.4383C59.4889 10.3916 59.6346 10.8349 59.8753 11.2149C60.1286 11.5949 60.4453 11.8862 60.8253 12.0889C61.2179 12.2789 61.6359 12.3739 62.0793 12.3739C62.5859 12.3739 63.0609 12.2536 63.5043 12.0129C63.9603 11.7596 64.2706 11.4302 64.4353 11.0249L66.6203 11.6329C66.3796 12.1396 66.0313 12.5892 65.5753 12.9819C65.1319 13.3746 64.6063 13.6849 63.9983 13.9129C63.3903 14.1282 62.7189 14.2359 61.9843 14.2359ZM59.3813 8.2699H64.5873C64.5366 7.76323 64.3909 7.32623 64.1503 6.9589C63.9223 6.5789 63.6183 6.28756 63.2383 6.0849C62.8583 5.86956 62.4339 5.7619 61.9653 5.7619C61.5093 5.7619 61.0913 5.86956 60.7113 6.0849C60.3439 6.28756 60.0399 6.5789 59.7993 6.9589C59.5713 7.32623 59.4319 7.76323 59.3813 8.2699Z" fill="#181818"/>
</svg>
